<svg xmlns="http://www.w3.org/2000/svg" viewBox="0 0 1200 630" width="1200" height="630">
  <defs>
    <linearGradient id="dusk" x1="0" y1="0" x2="1" y2="1">
      <stop offset="0" stop-color="#181d27"/>
      <stop offset="0.42" stop-color="#3a221d"/>
      <stop offset="0.8" stop-color="#c8311b"/>
      <stop offset="1.12" stop-color="#e8a04f"/>
    </linearGradient>
    <radialGradient id="sun" cx="0.88" cy="0.1" r="0.5">
      <stop offset="0" stop-color="#f4c878" stop-opacity="0.85"/>
      <stop offset="0.5" stop-color="#e08a4a" stop-opacity="0.35"/>
      <stop offset="1" stop-color="#e08a4a" stop-opacity="0"/>
    </radialGradient>
    <linearGradient id="mark" x1="0" y1="0" x2="1" y2="1">
      <stop offset="0" stop-color="#a8241a"/>
      <stop offset="1" stop-color="#e89a4f"/>
    </linearGradient>
    <linearGradient id="fast" x1="0" y1="0" x2="1" y2="0">
      <stop offset="0" stop-color="#f4d79a"/>
      <stop offset="1" stop-color="#f0a86a"/>
    </linearGradient>
  </defs>

  <rect width="1200" height="630" fill="url(#dusk)"/>
  <rect width="1200" height="630" fill="url(#sun)"/>

  <g transform="translate(96 110)">
    <rect width="66" height="66" rx="18" fill="url(#mark)"/>
    <g transform="translate(12 14)" fill="#ffffff">
      <path d="M21 0 42 10.5 21 21 0 10.5Z" opacity="0.95"/>
      <path d="M0 20 21 30.5 42 20v8L21 38.5 0 28Z" opacity="0.82"/>
      <path d="M7 15.5 21 22.5l14-7v5L21 27.5 7 20.5Z" opacity="0.62"/>
    </g>
    <text x="86" y="44" font-family="system-ui, sans-serif" font-size="40" font-weight="800" letter-spacing="0" fill="#ffffff">ShakaStack</text>
  </g>

  <text x="96" y="300" font-family="system-ui, sans-serif" font-size="78" font-weight="800" letter-spacing="0" fill="#ffffff">Ship modern React in Rails -</text>
  <text x="96" y="392" font-family="system-ui, sans-serif" font-size="78" font-weight="800" letter-spacing="0"><tspan fill="url(#fast)">fast</tspan><tspan fill="#ffffff">, and prove it.</tspan></text>

  <text x="96" y="470" font-family="system-ui, sans-serif" font-size="30" fill="#f1e9dd" opacity="0.88">Four phases, four OSS projects + ShakaPerf by artifact.</text>

  <text x="96" y="556" font-family="ui-monospace, monospace" font-size="26" letter-spacing="2" fill="#f4d79a" opacity="0.92">build → test → prove → deploy</text>
</svg>
