<svg xmlns="http://www.w3.org/2000/svg" width="512" height="512" viewBox="0 0 512 512" fill="none" >
<rect x="104" y="116" width="224" height="166" rx="34" fill="none" stroke="#00c48c" stroke-width="24" opacity="0.95"/><line x1="134" y1="158" x2="294" y2="158" stroke="#00c48c" stroke-width="12" stroke-linecap="round" opacity="0.85"/><circle cx="136" cy="140" r="6" fill="#00c48c" stroke="none" stroke-width="1" opacity="1"/><circle cx="158" cy="140" r="6" fill="#00c48c" stroke="none" stroke-width="1" opacity="0.65"/><circle cx="180" cy="140" r="6" fill="#00c48c" stroke="none" stroke-width="1" opacity="0.35"/><rect x="176" y="178" width="232" height="176" rx="36" fill="none" stroke="#13d5f4" stroke-width="24" opacity="0.96"/><line x1="206" y1="220" x2="372" y2="220" stroke="#13d5f4" stroke-width="12" stroke-linecap="round" opacity="0.85"/><circle cx="208" cy="202" r="6" fill="#13d5f4" stroke="none" stroke-width="1" opacity="1"/><circle cx="230" cy="202" r="6" fill="#13d5f4" stroke="none" stroke-width="1" opacity="0.65"/><circle cx="252" cy="202" r="6" fill="#13d5f4" stroke="none" stroke-width="1" opacity="0.35"/><path d="M196 290 L242.4 336.4 L336.8 229.2" fill="none" stroke="#61e294" stroke-width="32" stroke-linecap="round" stroke-linejoin="round" opacity="1"/><line x1="142" y1="400" x2="372" y2="400" stroke="#ef2b36" stroke-width="12" stroke-linecap="round" opacity="0.95"/><line x1="142" y1="436" x2="372" y2="436" stroke="#ef2b36" stroke-width="12" stroke-linecap="round" opacity="0.95"/><line x1="160.0" y1="398" x2="178.0" y2="438" stroke="#ef2b36" stroke-width="10" stroke-linecap="round" opacity="0.92"/><line x1="198.8" y1="398" x2="216.8" y2="438" stroke="#ef2b36" stroke-width="10" stroke-linecap="round" opacity="0.92"/><line x1="237.6" y1="398" x2="255.6" y2="438" stroke="#ef2b36" stroke-width="10" stroke-linecap="round" opacity="0.92"/><line x1="276.4" y1="398" x2="294.4" y2="438" stroke="#ef2b36" stroke-width="10" stroke-linecap="round" opacity="0.92"/><line x1="315.2" y1="398" x2="333.2" y2="438" stroke="#ef2b36" stroke-width="10" stroke-linecap="round" opacity="0.92"/><line x1="354.0" y1="398" x2="372.0" y2="438" stroke="#ef2b36" stroke-width="10" stroke-linecap="round" opacity="0.92"/>
</svg>